<svg width="40" height="40" viewBox="0 0 40 40" fill="none" xmlns="http://www.w3.org/2000/svg">
<path d="M34.6354 28.9574L30.1354 23.3324H31.6671C31.972 23.3328 32.2713 23.2495 32.5321 23.0914C32.7929 22.9334 33.0053 22.7068 33.1462 22.4363C33.287 22.1658 33.3508 21.8618 33.3307 21.5575C33.3106 21.2532 33.2073 20.9603 33.0321 20.7107L21.3654 4.04406C21.1117 3.68209 20.7247 3.43561 20.2894 3.35874C19.8541 3.28187 19.4061 3.38089 19.0437 3.63406C18.9005 3.74109 18.776 3.8712 18.6754 4.01906C18.6337 4.04406 6.96707 20.7107 6.96707 20.7107C6.79239 20.9606 6.68958 21.2536 6.66983 21.5578C6.65009 21.862 6.71417 22.1658 6.85509 22.4362C6.99602 22.7065 7.20839 22.933 7.4691 23.091C7.72982 23.249 8.02888 23.3325 8.33374 23.3324H9.86541L5.36541 28.9574C4.96541 29.4591 4.88708 30.1441 5.16374 30.7224C5.44208 31.2974 6.02708 31.6657 6.66708 31.6657H18.3337V36.6657C18.3337 37.1078 18.5093 37.5317 18.8219 37.8442C19.1345 38.1568 19.5584 38.3324 20.0004 38.3324C20.4424 38.3324 20.8664 38.1568 21.1789 37.8442C21.4915 37.5317 21.6671 37.1078 21.6671 36.6657V31.6657H33.3337C33.6475 31.6652 33.9548 31.5762 34.2203 31.4089C34.4857 31.2416 34.6987 31.0029 34.8346 30.7201C34.9705 30.4373 35.0239 30.1219 34.9887 29.8101C34.9535 29.4983 34.831 29.2027 34.6354 28.9574ZM21.6671 28.3324V19.9991C21.6671 19.557 21.4915 19.1331 21.1789 18.8205C20.8664 18.508 20.4424 18.3324 20.0004 18.3324C19.5584 18.3324 19.1345 18.508 18.8219 18.8205C18.5093 19.1331 18.3337 19.557 18.3337 19.9991V28.3324H10.1354L14.6354 22.7074C15.0354 22.2057 15.1137 21.5207 14.8371 20.9424C14.7002 20.66 14.4866 20.4218 14.2208 20.255C13.9549 20.0882 13.6476 19.9995 13.3337 19.9991H11.5337L20.0004 7.90573L28.4671 19.9991H26.6671C26.3534 19.9999 26.0464 20.0891 25.7812 20.2565C25.5159 20.4239 25.3033 20.6627 25.1675 20.9454C25.0318 21.2282 24.9785 21.5435 25.0138 21.8551C25.0491 22.1668 25.1716 22.4622 25.3671 22.7074L29.8671 28.3324H21.6671Z" fill="white"/>
</svg>
